<svg width="25" height="25" viewBox="0 0 25 25" fill="none" xmlns="http://www.w3.org/2000/svg">
<path d="M0.5 12.3806C0.5 5.75322 5.8726 0.380615 12.5 0.380615C19.1274 0.380615 24.5 5.75322 24.5 12.3806C24.5 19.008 19.1274 24.3806 12.5 24.3806C5.8726 24.3806 0.5 19.008 0.5 12.3806Z" fill="#333333"/>
<path d="M10.1 19.5806C11.4254 19.5806 12.5 18.5061 12.5 17.1806V14.7806H10.1C8.77447 14.7806 7.69995 15.8552 7.69995 17.1806C7.69995 18.5061 8.77447 19.5806 10.1 19.5806Z" fill="#0ACF83"/>
<path d="M7.69995 12.3807C7.69995 11.0552 8.77447 9.98071 10.1 9.98071H12.5V14.7807H10.1C8.77447 14.7807 7.69995 13.7062 7.69995 12.3807Z" fill="#A259FF"/>
<path d="M7.69995 7.58066C7.69995 6.25518 8.77447 5.18066 10.1 5.18066H12.5V9.98066H10.1C8.77447 9.98066 7.69995 8.90615 7.69995 7.58066Z" fill="#F24E1E"/>
<path d="M12.5 5.18066H14.9C16.2255 5.18066 17.3 6.25518 17.3 7.58066C17.3 8.90615 16.2255 9.98066 14.9 9.98066H12.5V5.18066Z" fill="#FF7262"/>
<path d="M17.3 12.3807C17.3 13.7062 16.2255 14.7807 14.9 14.7807C13.5745 14.7807 12.5 13.7062 12.5 12.3807C12.5 11.0552 13.5745 9.98071 14.9 9.98071C16.2255 9.98071 17.3 11.0552 17.3 12.3807Z" fill="#1ABCFE"/>
</svg>
